<mxfile host="app.diagrams.net" modified="2023-12-24T08:59:05.314Z" agent="Mozilla/5.0 (Windows NT 10.0; Win64; x64) AppleWebKit/537.36 (KHTML, like Gecko) Chrome/120.0.0.0 Safari/537.36" etag="ftIEZ7_2B3HL_34KRAxM" version="22.1.11" type="github">
  <diagram name="ページ1" id="k6JPTix9YpzE87MfOvxE">
    <mxGraphModel dx="1114" dy="607" grid="1" gridSize="10" guides="1" tooltips="1" connect="1" arrows="1" fold="1" page="1" pageScale="1" pageWidth="827" pageHeight="1169" math="0" shadow="0">
      <root>
        <mxCell id="0" />
        <mxCell id="1" parent="0" />
        <mxCell id="dK449sWNI6FFhzl8yzN6-1" value="" style="sketch=0;points=[[0,0,0],[0.25,0,0],[0.5,0,0],[0.75,0,0],[1,0,0],[0,1,0],[0.25,1,0],[0.5,1,0],[0.75,1,0],[1,1,0],[0,0.25,0],[0,0.5,0],[0,0.75,0],[1,0.25,0],[1,0.5,0],[1,0.75,0]];outlineConnect=0;fontColor=#232F3E;fillColor=#01A88D;strokeColor=#ffffff;dashed=0;verticalLabelPosition=bottom;verticalAlign=top;align=center;html=1;fontSize=12;fontStyle=0;aspect=fixed;shape=mxgraph.aws4.resourceIcon;resIcon=mxgraph.aws4.sagemaker;" vertex="1" parent="1">
          <mxGeometry x="190" y="160" width="60" height="60" as="geometry" />
        </mxCell>
        <mxCell id="dK449sWNI6FFhzl8yzN6-2" value="Amazon SageMaker" style="text;html=1;strokeColor=none;fillColor=none;align=center;verticalAlign=middle;whiteSpace=wrap;rounded=0;" vertex="1" parent="1">
          <mxGeometry x="190" y="220" width="60" height="30" as="geometry" />
        </mxCell>
        <mxCell id="dK449sWNI6FFhzl8yzN6-3" value="" style="sketch=0;points=[[0,0,0],[0.25,0,0],[0.5,0,0],[0.75,0,0],[1,0,0],[0,1,0],[0.25,1,0],[0.5,1,0],[0.75,1,0],[1,1,0],[0,0.25,0],[0,0.5,0],[0,0.75,0],[1,0.25,0],[1,0.5,0],[1,0.75,0]];outlineConnect=0;fontColor=#232F3E;fillColor=#7AA116;strokeColor=#ffffff;dashed=0;verticalLabelPosition=bottom;verticalAlign=top;align=center;html=1;fontSize=12;fontStyle=0;aspect=fixed;shape=mxgraph.aws4.resourceIcon;resIcon=mxgraph.aws4.s3;" vertex="1" parent="1">
          <mxGeometry x="500" y="160" width="60" height="60" as="geometry" />
        </mxCell>
        <mxCell id="dK449sWNI6FFhzl8yzN6-6" value="Amazon S3" style="text;html=1;strokeColor=none;fillColor=none;align=center;verticalAlign=middle;whiteSpace=wrap;rounded=0;" vertex="1" parent="1">
          <mxGeometry x="500" y="220" width="60" height="30" as="geometry" />
        </mxCell>
        <mxCell id="dK449sWNI6FFhzl8yzN6-7" value="File Locations in the Container of the SageMaker Instance" style="text;html=1;strokeColor=none;fillColor=none;align=center;verticalAlign=middle;whiteSpace=wrap;rounded=0;" vertex="1" parent="1">
          <mxGeometry x="130" y="270" width="180" height="30" as="geometry" />
        </mxCell>
        <mxCell id="dK449sWNI6FFhzl8yzN6-8" value="/opt/ml/processing/input&lt;br&gt;&lt;br&gt;&lt;br&gt;/opt/ml/processing/output&lt;br&gt;&lt;br&gt;&lt;br&gt;/opt/ml/processing/model" style="text;html=1;align=center;verticalAlign=middle;whiteSpace=wrap;rounded=0;strokeColor=default;" vertex="1" parent="1">
          <mxGeometry x="130" y="310" width="180" height="170" as="geometry" />
        </mxCell>
        <mxCell id="dK449sWNI6FFhzl8yzN6-9" value="s3://&amp;lt;bucket&amp;gt;/&amp;lt;job_name&amp;gt;/input&lt;br&gt;&lt;br&gt;&lt;br&gt;s3://&amp;lt;bucket&amp;gt;/&amp;lt;job_name&amp;gt;/output&lt;br&gt;&lt;br&gt;&lt;br&gt;s3://&amp;lt;bucket&amp;gt;/&amp;lt;job_name&amp;gt;/model" style="text;html=1;align=center;verticalAlign=middle;whiteSpace=wrap;rounded=0;strokeColor=default;" vertex="1" parent="1">
          <mxGeometry x="426" y="310" width="216" height="170" as="geometry" />
        </mxCell>
        <mxCell id="dK449sWNI6FFhzl8yzN6-10" value="S3 Locations" style="text;html=1;strokeColor=none;fillColor=none;align=center;verticalAlign=middle;whiteSpace=wrap;rounded=0;" vertex="1" parent="1">
          <mxGeometry x="444" y="270" width="180" height="30" as="geometry" />
        </mxCell>
        <mxCell id="dK449sWNI6FFhzl8yzN6-11" value="" style="shape=flexArrow;endArrow=classic;html=1;rounded=0;" edge="1" parent="1">
          <mxGeometry width="50" height="50" relative="1" as="geometry">
            <mxPoint x="329.5" y="349.5" as="sourcePoint" />
            <mxPoint x="413.5" y="349.5" as="targetPoint" />
          </mxGeometry>
        </mxCell>
        <mxCell id="dK449sWNI6FFhzl8yzN6-12" value="" style="shape=flexArrow;endArrow=classic;html=1;rounded=0;" edge="1" parent="1">
          <mxGeometry width="50" height="50" relative="1" as="geometry">
            <mxPoint x="329.5" y="394" as="sourcePoint" />
            <mxPoint x="413.5" y="394" as="targetPoint" />
          </mxGeometry>
        </mxCell>
        <mxCell id="dK449sWNI6FFhzl8yzN6-13" value="" style="shape=flexArrow;endArrow=classic;html=1;rounded=0;" edge="1" parent="1">
          <mxGeometry width="50" height="50" relative="1" as="geometry">
            <mxPoint x="329.5" y="439.5" as="sourcePoint" />
            <mxPoint x="413.5" y="439.5" as="targetPoint" />
          </mxGeometry>
        </mxCell>
      </root>
    </mxGraphModel>
  </diagram>
</mxfile>
